<svg xmlns="http://www.w3.org/2000/svg" viewBox="0 0 48 48" fill="none">
  <circle cx="24" cy="24" r="22" fill="#07C160"/>
  <path d="M32 20.5C32 16.91 28.866 14 25 14C21.134 14 18 16.91 18 20.5C18 24.09 21.134 27 25 27C26.2 27 27.34 26.7 28.34 26.16L31 28L30.42 25.26C31.42 24.14 32 22.86 32 20.5Z" fill="#FFFFFF"/>
  <path d="M35 27.5C35 24.46 32.54 22 29.5 22C26.46 22 24 24.46 24 27.5C24 30.54 26.46 33 29.5 33C30.46 33 31.36 32.74 32.16 32.3L34 33.5L33.64 31.58C34.54 30.62 35 29.56 35 27.5Z" fill="#FFFFFF" opacity="0.9"/>
  <circle cx="23" cy="20" r="1.5" fill="#07C160"/>
  <circle cx="27" cy="20" r="1.5" fill="#07C160"/>
  <circle cx="28" cy="27" r="1.2" fill="#07C160"/>
  <circle cx="31" cy="27" r="1.2" fill="#07C160"/>
</svg>